<svg id="Layer_1" data-name="Layer 1" xmlns="http://www.w3.org/2000/svg" xmlns:xlink="http://www.w3.org/1999/xlink" viewBox="0 0 259.8 200"><defs><style>.cls-1,.cls-12,.cls-13,.cls-14,.cls-9{fill:none;}.cls-15,.cls-2,.cls-8{fill:#fff;}.cls-2,.cls-9{stroke:#009987;stroke-linecap:round;}.cls-12,.cls-13,.cls-14,.cls-2,.cls-9{stroke-miterlimit:10;}.cls-2{stroke-width:10px;}.cls-3{fill:#fd9453;}.cls-4{fill:#f7b733;}.cls-5{fill:#00bdac;}.cls-11,.cls-6{fill:#009987;}.cls-12,.cls-13,.cls-7{opacity:0.7;}.cls-9{stroke-width:0.75px;}.cls-10{clip-path:url(#clip-path);}.cls-11{opacity:0.67;}.cls-12,.cls-13{stroke:#fff;}.cls-12{stroke-width:0.5px;}.cls-14{stroke:#bde9e6;}.cls-15{opacity:0.3;}</style><clipPath id="clip-path" transform="translate(-239.5 -96.88)"><circle class="cls-1" cx="430.28" cy="244" r="50.67"/></clipPath></defs><title>logo</title><path class="cls-2" d="M201.53,196.88" transform="translate(-239.5 -96.88)"/><path class="cls-2" d="M200.13,196.88" transform="translate(-239.5 -96.88)"/><ellipse class="cls-3" cx="166.01" cy="17.03" rx="20.29" ry="13.73"/><path class="cls-3" d="M389.13,116.52c-2.43,0-4.35-1.48-4.35-3.31,0-9,9.67-16.33,21.59-16.33,9.07,0,17.24,4.35,20.3,10.79.85,1.74-.34,3.6-2.59,4.25s-4.77-.3-5.58-2c-1.83-3.86-6.72-6.44-12.13-6.44-7.11,0-12.9,4.38-12.9,9.73,0,1.84-1.91,3.31-4.34,3.31Zm0,0" transform="translate(-239.5 -96.88)"/><path class="cls-3" d="M428,125.9a4.4,4.4,0,0,1-4-2.49l-5.46-13.22c-.81-1.93.36-4,2.64-4.68a4.66,4.66,0,0,1,5.56,2.28L432.2,121c.8,1.93-.42,4-2.69,4.69a4.41,4.41,0,0,1-1.53.21Zm0,0" transform="translate(-239.5 -96.88)"/><path class="cls-3" d="M389.13,132.35c-2.43,0-4.35-1.66-4.35-3.71V112.81c0-2,1.92-3.68,4.35-3.68s4.34,1.66,4.34,3.68v15.83c0,2-1.91,3.71-4.34,3.71Zm0,0" transform="translate(-239.5 -96.88)"/><ellipse class="cls-3" cx="77.65" cy="17.03" rx="20.29" ry="13.73"/><path class="cls-3" d="M333.52,116.52c-2.43,0-4.34-1.48-4.34-3.31,0-5.35-5.8-9.73-12.9-9.73-5.41,0-10.3,2.58-12.13,6.44-.81,1.71-3.28,2.61-5.58,2s-3.44-2.51-2.59-4.25c3.06-6.44,11.24-10.79,20.3-10.79,11.92,0,21.59,7.34,21.59,16.33,0,1.84-1.92,3.31-4.35,3.31Zm0,0" transform="translate(-239.5 -96.88)"/><path class="cls-3" d="M294.68,125.9a4.41,4.41,0,0,1-1.53-.21c-2.28-.66-3.49-2.76-2.69-4.69L296,107.8a4.66,4.66,0,0,1,5.56-2.28c2.27.66,3.45,2.75,2.64,4.68l-5.46,13.22a4.4,4.4,0,0,1-4,2.49Zm0,0" transform="translate(-239.5 -96.88)"/><path class="cls-3" d="M333.52,132.35c-2.43,0-4.34-1.66-4.34-3.71V112.81c0-2,1.91-3.68,4.34-3.68s4.35,1.66,4.35,3.68v15.83c0,2-1.92,3.71-4.35,3.71Zm0,0" transform="translate(-239.5 -96.88)"/><rect class="cls-3" x="104.94" y="65.71" width="33.78" height="49.13"/><path class="cls-4" d="M341.55,152.59a3.7,3.7,0,0,1-3.72-3.67,28.07,28.07,0,0,0-54.48-9.53,3.68,3.68,0,1,1-6.92-2.52,35.44,35.44,0,0,1,68.79,12,3.7,3.7,0,0,1-3.67,3.71Zm0,0" transform="translate(-239.5 -96.88)"/><path class="cls-4" d="M341.57,247.59a3.71,3.71,0,0,1-3.72-3.67v-95a3.7,3.7,0,1,1,7.39,0v95a3.7,3.7,0,0,1-3.67,3.67Zm0,0" transform="translate(-239.5 -96.88)"/><path class="cls-4" d="M245.88,232.05h0a3.38,3.38,0,0,1-1.34-.26,3.79,3.79,0,0,1-2.23-4.88l34.53-91.2a3.81,3.81,0,0,1,7.14,2.69m-38.09,93.66" transform="translate(-239.5 -96.88)"/><path class="cls-4" d="M381.11,152.59a3.71,3.71,0,0,1-3.72-3.67,35.47,35.47,0,0,1,68.83-12,3.69,3.69,0,1,1-7,2.48,28.07,28.07,0,0,0-54.49,9.53,3.67,3.67,0,0,1-3.67,3.67Zm0,0" transform="translate(-239.5 -96.88)"/><path class="cls-4" d="M381.12,247.59a3.71,3.71,0,0,1-3.72-3.67v-95a3.7,3.7,0,1,1,7.39,0v95a3.67,3.67,0,0,1-3.67,3.67Zm0,0" transform="translate(-239.5 -96.88)"/><path class="cls-4" d="M476.77,232a3.75,3.75,0,0,1-3.53-2.46l-34.72-91.39a3.8,3.8,0,0,1,7.1-2.71l34.72,91.39a3.79,3.79,0,0,1-2.2,4.9,3.51,3.51,0,0,1-1.37.27Zm0,0" transform="translate(-239.5 -96.88)"/><polygon class="cls-4" points="173.41 19.34 197.42 30.91 231.75 111.46 184.46 95.5 143.93 123.75 143.47 56.88 148.49 31.63 173.41 19.34"/><polygon class="cls-4" points="71.47 19.96 47.46 31.52 13.12 112.08 60.41 96.11 100.94 124.36 101.4 57.5 95.47 31.52 71.47 19.96"/><circle class="cls-5" cx="52.88" cy="148.97" r="50.67"/><path class="cls-6" d="M292.93,255.69v7.37h-.47v-7.37Z" transform="translate(-239.5 -96.88)"/><path class="cls-6" d="M296.08,255.69v7.37h-.47v-7.37Z" transform="translate(-239.5 -96.88)"/><path class="cls-6" d="M299.24,255.69v7.37h-.47v-7.37Z" transform="translate(-239.5 -96.88)"/><path class="cls-6" d="M302.39,255.69v7.37h-.47v-7.37Z" transform="translate(-239.5 -96.88)"/><path class="cls-6" d="M305.55,255.69v7.37h-.47v-7.37Z" transform="translate(-239.5 -96.88)"/><path class="cls-6" d="M308.7,255.69v7.37h-.47v-7.37Z" transform="translate(-239.5 -96.88)"/><path class="cls-6" d="M311.86,255.69v7.37h-.47v-7.37Z" transform="translate(-239.5 -96.88)"/><path class="cls-6" d="M315,255.69v7.37h-.47v-7.37Z" transform="translate(-239.5 -96.88)"/><path class="cls-6" d="M318.17,255.69v7.37h-.47v-7.37Z" transform="translate(-239.5 -96.88)"/><path class="cls-6" d="M321.32,255.69v7.37h-.47v-7.37Z" transform="translate(-239.5 -96.88)"/><g class="cls-7"><circle class="cls-8" cx="268.87" cy="230.85" r="3.43" transform="translate(-243.65 -91.94) rotate(-1.04)"/><circle class="cls-8" cx="270.8" cy="225.52" r="3.43" transform="translate(-243.56 -91.91) rotate(-1.04)"/><circle class="cls-8" cx="272.72" cy="228.05" r="3.43" transform="translate(-243.6 -91.87) rotate(-1.04)"/><circle class="cls-8" cx="276.11" cy="225.43" r="3.43" transform="matrix(1, -0.02, 0.02, 1, -243.55, -91.81)"/><circle class="cls-8" cx="281.02" cy="221.03" r="3.43" transform="translate(-243.47 -91.72) rotate(-1.04)"/><circle class="cls-8" cx="274.2" cy="223.27" r="3.43" transform="translate(-243.52 -91.84) rotate(-1.04)"/><circle class="cls-8" cx="277.61" cy="221.97" r="3.43" transform="translate(-243.49 -91.78) rotate(-1.04)"/><circle class="cls-8" cx="278.59" cy="222.37" r="3.43" transform="translate(-243.5 -91.77) rotate(-1.04)"/></g><g class="cls-7"><circle class="cls-8" cx="280.06" cy="235.64" r="2.94" transform="translate(-243.74 -91.74) rotate(-1.04)"/><circle class="cls-8" cx="281.88" cy="232.22" r="2.94" transform="matrix(1, -0.02, 0.02, 1, -243.68, -91.7)"/><circle class="cls-8" cx="283.35" cy="233.24" r="2.94" transform="translate(-243.7 -91.68) rotate(-1.04)"/><circle class="cls-8" cx="287.06" cy="232.13" r="2.94" transform="matrix(1, -0.02, 0.02, 1, -243.67, -91.61)"/><circle class="cls-8" cx="291.74" cy="230.16" r="2.94" transform="translate(-243.64 -91.52) rotate(-1.04)"/><circle class="cls-8" cx="285.25" cy="231.02" r="2.94" transform="translate(-243.65 -91.64) rotate(-1.04)"/><circle class="cls-8" cx="288.16" cy="229.62" r="2.94" transform="translate(-243.63 -91.59) rotate(-1.04)"/></g><path class="cls-6" d="M312.44,289.52h-21V262.69h31v16.83A10,10,0,0,1,312.44,289.52Z" transform="translate(-239.5 -96.88)"/><path class="cls-5" d="M306.94,255.12c8.73,0,15.8,1.65,15.8,3.68s-7.08,3.68-15.8,3.68-15.8-1.65-15.8-3.68,7.08-3.68,15.8-3.68m0-4a55.64,55.64,0,0,0-12.08,1.18c-1.91.45-7.72,1.8-7.72,6.5s5.81,6.06,7.72,6.5a62.26,62.26,0,0,0,24.17,0c1.91-.45,7.72-1.8,7.72-6.5s-5.81-6.06-7.72-6.5a55.64,55.64,0,0,0-12.08-1.18Z" transform="translate(-239.5 -96.88)"/><ellipse class="cls-6" cx="67.45" cy="166.34" rx="15.5" ry="4.21"/><path class="cls-6" d="M306.94,258c9.05,0,14.4,1.73,14.8,2.68-.4,1-5.74,2.68-14.8,2.68s-14.4-1.73-14.8-2.68c.4-1,5.74-2.68,14.8-2.68m0-1c-8.73,0-15.8,1.65-15.8,3.68s7.08,3.68,15.8,3.68,15.8-1.65,15.8-3.68-7.08-3.68-15.8-3.68Z" transform="translate(-239.5 -96.88)"/><path class="cls-6" d="M306.94,256.12c9.05,0,14.4,1.73,14.8,2.68-.4,1-5.74,2.68-14.8,2.68s-14.4-1.73-14.8-2.68c.4-1,5.74-2.68,14.8-2.68m0-1c-8.73,0-15.8,1.65-15.8,3.68s7.08,3.68,15.8,3.68,15.8-1.65,15.8-3.68-7.08-3.68-15.8-3.68Z" transform="translate(-239.5 -96.88)"/><path class="cls-6" d="M292.93,258.76v7.37h-.47v-7.37Z" transform="translate(-239.5 -96.88)"/><path class="cls-6" d="M321.32,259.37v7.37h-.47v-7.37Z" transform="translate(-239.5 -96.88)"/><path class="cls-6" d="M323.28,258.71h2.18V259h-2.18Z" transform="translate(-239.5 -96.88)"/><line class="cls-9" x1="83.91" y1="161.52" x2="83.91" y2="184.55"/><line class="cls-9" x1="85.82" y1="161.52" x2="85.82" y2="183.27"/><path class="cls-6" d="M323.28,260h2.18v.32h-2.18Z" transform="translate(-239.5 -96.88)"/><path class="cls-6" d="M323.28,261.27h2.18v.32h-2.18Z" transform="translate(-239.5 -96.88)"/><path class="cls-6" d="M323.28,262.55h2.18v.32h-2.18Z" transform="translate(-239.5 -96.88)"/><path class="cls-6" d="M323.28,263.83h2.18v.32h-2.18Z" transform="translate(-239.5 -96.88)"/><path class="cls-6" d="M323.28,265.11h2.18v.32h-2.18Z" transform="translate(-239.5 -96.88)"/><path class="cls-6" d="M323.28,266.39h2.18v.32h-2.18Z" transform="translate(-239.5 -96.88)"/><path class="cls-6" d="M323.28,267.67h2.18V268h-2.18Z" transform="translate(-239.5 -96.88)"/><path class="cls-6" d="M323.28,268.95h2.18v.32h-2.18Z" transform="translate(-239.5 -96.88)"/><path class="cls-6" d="M323.28,270.23h2.18v.32h-2.18Z" transform="translate(-239.5 -96.88)"/><path class="cls-6" d="M323.28,271.51h2.18v.32h-2.18Z" transform="translate(-239.5 -96.88)"/><path class="cls-6" d="M323.28,272.78h2.18v.32h-2.18Z" transform="translate(-239.5 -96.88)"/><path class="cls-6" d="M323.28,274.06h2.18v.32h-2.18Z" transform="translate(-239.5 -96.88)"/><path class="cls-6" d="M323.28,275.34h2.18v.32h-2.18Z" transform="translate(-239.5 -96.88)"/><path class="cls-6" d="M323.28,276.62h2.18v.32h-2.18Z" transform="translate(-239.5 -96.88)"/><path class="cls-6" d="M323.28,277.9h2.18v.32h-2.18Z" transform="translate(-239.5 -96.88)"/><path class="cls-6" d="M323.28,279.18h2.18v.32h-2.18Z" transform="translate(-239.5 -96.88)"/><line class="cls-9" x1="81.74" y1="162.44" x2="86.35" y2="162.44"/><line class="cls-9" x1="81.74" y1="164.1" x2="86.35" y2="164.1"/><path class="cls-6" d="M293.29,292.57h-17A14.53,14.53,0,0,1,261.76,278h31.53Z" transform="translate(-239.5 -96.88)"/><path class="cls-6" d="M267.94,277.43h0a2.16,2.16,0,0,1-2.15-2.15V239.73a1,1,0,0,1,1-1h2.31a1,1,0,0,1,1,1v35.55A2.16,2.16,0,0,1,267.94,277.43Z" transform="translate(-239.5 -96.88)"/><path class="cls-6" d="M279.17,279.89h0a2.16,2.16,0,0,1-2.15-2.15V243.42a1,1,0,0,1,1-1h2.31a1,1,0,0,1,1,1v34.32A2.16,2.16,0,0,1,279.17,279.89Z" transform="translate(-239.5 -96.88)"/><path class="cls-6" d="M285.43,272.28v8.08h-4.62v-8.08h4.62m3-3H277.81v14.08h10.62V269.28Z" transform="translate(-239.5 -96.88)"/><path class="cls-6" d="M264.07,246.71h5.59v.61h-5.59Z" transform="translate(-239.5 -96.88)"/><path class="cls-6" d="M264.07,249.13h2.7v.61h-2.7Z" transform="translate(-239.5 -96.88)"/><path class="cls-6" d="M264.07,251.55h2.7v.61h-2.7Z" transform="translate(-239.5 -96.88)"/><path class="cls-6" d="M264.07,254h2.7v.61h-2.7Z" transform="translate(-239.5 -96.88)"/><path class="cls-6" d="M264.07,256.39h2.7V257h-2.7Z" transform="translate(-239.5 -96.88)"/><path class="cls-6" d="M264.07,258.82h2.7v.61h-2.7Z" transform="translate(-239.5 -96.88)"/><path class="cls-6" d="M264.07,261.24h2.7v.61h-2.7Z" transform="translate(-239.5 -96.88)"/><path class="cls-6" d="M264.07,263.66h2.7v.61h-2.7Z" transform="translate(-239.5 -96.88)"/><path class="cls-6" d="M264.07,266.08h2.7v.61h-2.7Z" transform="translate(-239.5 -96.88)"/><path class="cls-6" d="M264.07,268.5h2.7v.61h-2.7Z" transform="translate(-239.5 -96.88)"/><path class="cls-6" d="M264.07,273.34h2.7v.61h-2.7Z" transform="translate(-239.5 -96.88)"/><path class="cls-6" d="M264.07,275.76h2.7v.61h-2.7Z" transform="translate(-239.5 -96.88)"/><path class="cls-6" d="M264.07,278.18h2.7v.61h-2.7Z" transform="translate(-239.5 -96.88)"/><path class="cls-6" d="M264.07,280.6h2.7v.61h-2.7Z" transform="translate(-239.5 -96.88)"/><path class="cls-6" d="M264.07,283h2.7v.61h-2.7Z" transform="translate(-239.5 -96.88)"/><path class="cls-6" d="M270.5,247.46l-1,.78v-.78h1m2.22-.75h-4v3.43l.43-.72,3.56-2.71Z" transform="translate(-239.5 -96.88)"/><rect class="cls-6" x="22.68" y="175.91" width="22.76" height="9.56"/><g class="cls-10"><circle class="cls-5" cx="190.78" cy="147.12" r="50.67"/><rect class="cls-11" x="137.2" y="166.29" width="99.11" height="18.12" rx="9.06" ry="9.06"/><path class="cls-5" d="M473.22,250.64h-4.93v-4.87a30.12,30.12,0,0,0,4.93,1.83Z" transform="translate(-239.5 -96.88)"/><path class="cls-5" d="M466.44,244.64v6h-4.31V241a24.07,24.07,0,0,0,4.31,3.69Z" transform="translate(-239.5 -96.88)"/><path class="cls-5" d="M460.28,238.68v12h-2.61V234a23.78,23.78,0,0,0,2.61,4.66Z" transform="translate(-239.5 -96.88)"/><path class="cls-5" d="M437.28,250.64v-3a23.75,23.75,0,0,0,4.31-1.82v4.87Z" transform="translate(-239.5 -96.88)"/><path class="cls-5" d="M435.43,250.64h-4.31v-2a23.77,23.77,0,0,0,4.31-.56Z" transform="translate(-239.5 -96.88)"/><path class="cls-5" d="M429.27,250.64H425v-2.55a23.74,23.74,0,0,0,4.3.56Z" transform="translate(-239.5 -96.88)"/><path class="cls-5" d="M423,250.64H418.7v-4.87a23.76,23.76,0,0,0,4.31,1.82Z" transform="translate(-239.5 -96.88)"/><path class="cls-5" d="M452.21,250.64H449.6v-12a23.89,23.89,0,0,0,2.61-4.66Z" transform="translate(-239.5 -96.88)"/><path class="cls-5" d="M447.75,241v9.68h-4.31v-6a24.08,24.08,0,0,0,4.31-3.69Z" transform="translate(-239.5 -96.88)"/><path class="cls-5" d="M417,244.64v6h-4.31V241a24.12,24.12,0,0,0,4.31,3.69Z" transform="translate(-239.5 -96.88)"/><path class="cls-5" d="M410.79,238.68v12h-2.61V234a23.88,23.88,0,0,0,2.61,4.66Z" transform="translate(-239.5 -96.88)"/><path class="cls-5" d="M398.27,241v9.68H394v-6a24.09,24.09,0,0,0,4.31-3.69Z" transform="translate(-239.5 -96.88)"/><path class="cls-5" d="M387.29,247.59a28.83,28.83,0,0,0,4.82-1.83v4.87h-4.82Z" transform="translate(-239.5 -96.88)"/><path class="cls-5" d="M400.12,250.64v-12a23.82,23.82,0,0,0,2.61-4.66v16.62Z" transform="translate(-239.5 -96.88)"/><path class="cls-5" d="M451.25,268.41" transform="translate(-239.5 -96.88)"/><line class="cls-12" x1="216.3" y1="132.69" x2="216.3" y2="160.57"/><line class="cls-12" x1="218.13" y1="135.54" x2="218.13" y2="163.42"/><line class="cls-12" x1="220.01" y1="138.45" x2="220.01" y2="163.42"/><line class="cls-12" x1="221.9" y1="141.05" x2="221.9" y2="162.68"/><line class="cls-12" x1="223.78" y1="143.78" x2="223.78" y2="163.99"/><line class="cls-12" x1="225.56" y1="145.85" x2="225.56" y2="162.94"/><line class="cls-12" x1="227.39" y1="148.01" x2="227.39" y2="164.64"/><line class="cls-12" x1="229.27" y1="150.4" x2="229.27" y2="165.29"/><line class="cls-12" x1="231.15" y1="152.61" x2="231.15" y2="165.51"/><line class="cls-12" x1="233.04" y1="154.73" x2="233.04" y2="165.13"/><line class="cls-12" x1="234.92" y1="157.03" x2="234.92" y2="163.99"/><line class="cls-12" x1="214.54" y1="129.84" x2="214.54" y2="160.19"/><line class="cls-12" x1="207.81" y1="131.1" x2="207.81" y2="159.57"/><line class="cls-12" x1="205.98" y1="133.03" x2="205.98" y2="161.34"/><line class="cls-12" x1="204.1" y1="133.03" x2="204.1" y2="160.18"/><line class="cls-12" x1="202.21" y1="129.84" x2="202.21" y2="158.88"/><line class="cls-13" x1="200.33" y1="135.98" x2="200.33" y2="162.4"/><line class="cls-12" x1="196.73" y1="130.16" x2="196.73" y2="158.88"/><line class="cls-12" x1="194.84" y1="132.9" x2="194.84" y2="159.17"/><line class="cls-12" x1="192.96" y1="135.54" x2="192.96" y2="158.68"/><line class="cls-12" x1="191.07" y1="137.98" x2="191.07" y2="157.12"/><line class="cls-12" x1="189.19" y1="140.37" x2="189.19" y2="156.33"/><line class="cls-12" x1="209.57" y1="128.24" x2="209.57" y2="159.95"/><line class="cls-12" x1="187.33" y1="142.49" x2="187.33" y2="157.57"/><line class="cls-12" x1="185.44" y1="144.42" x2="185.44" y2="158.22"/><line class="cls-12" x1="183.56" y1="146.3" x2="183.56" y2="157.74"/><line class="cls-12" x1="181.67" y1="148.08" x2="181.67" y2="156.73"/><line class="cls-12" x1="179.79" y1="149.82" x2="179.79" y2="157.22"/><line class="cls-12" x1="177.99" y1="151.32" x2="177.99" y2="156.33"/><line class="cls-12" x1="176.1" y1="152.25" x2="176.1" y2="156.73"/><line class="cls-12" x1="174.55" y1="153.21" x2="174.55" y2="156.32"/><line class="cls-12" x1="158.11" y1="140.9" x2="158.11" y2="154.73"/><line class="cls-12" x1="159.83" y1="143.81" x2="159.83" y2="155.23"/><line class="cls-12" x1="161.71" y1="146.35" x2="161.71" y2="155.23"/><line class="cls-12" x1="163.6" y1="148.28" x2="163.6" y2="155.23"/><line class="cls-12" x1="165.48" y1="149.87" x2="165.48" y2="155.56"/><line class="cls-12" x1="167.28" y1="151.36" x2="167.28" y2="155.23"/><line class="cls-12" x1="169.17" y1="152.29" x2="169.17" y2="155.23"/><line class="cls-12" x1="170.72" y1="153.25" x2="170.72" y2="156.37"/><line class="cls-13" x1="156.75" y1="139.7" x2="156.75" y2="153.53"/><line class="cls-12" x1="155.03" y1="138.88" x2="155.03" y2="154.03"/><line class="cls-12" x1="153.15" y1="145.15" x2="153.15" y2="154.03"/><line class="cls-12" x1="151.43" y1="141.05" x2="151.43" y2="154.03"/><line class="cls-12" x1="147.74" y1="145.15" x2="147.74" y2="154.03"/><line class="cls-12" x1="146.02" y1="150.4" x2="146.02" y2="154.49"/><polygon class="cls-6" points="149.49 137.12 150.13 136.45 150.74 137.12 149.49 137.12"/><polygon class="cls-6" points="155.96 137.12 156.6 136.45 157.21 137.12 155.96 137.12"/><polygon class="cls-6" points="236.64 159.95 238.96 159.95 239.92 180.56 237.06 180.56 236.64 159.95"/><path class="cls-14" d="M451.35,223.07c-1.18,1.66-6.51,7.45-8.55,9.86a94.63,94.63,0,0,1-8.27,8.6c-4.61,4.24-7,6.39-10.81,8a18,18,0,0,1-6,1.72c-6.49.55-11.4-3.26-13.11-4.59-4.57-3.55-7.69-10-8.54-12.24" transform="translate(-239.5 -96.88)"/><polygon class="cls-6" points="155.96 137.12 157.21 137.12 157.94 166.29 156.19 166.29 155.96 137.12"/><path class="cls-14" d="M389.22,234.9a76.5,76.5,0,0,1-2.29,8.36,49.15,49.15,0,0,1-3.43,8.49" transform="translate(-239.5 -96.88)"/><rect class="cls-6" x="201.01" y="127.04" width="10.19" height="2.42"/><path class="cls-14" d="M394.45,235.59a76.5,76.5,0,0,1-2.29,8.36c-1.37,4.08-1.41,4.63-3,7.64" transform="translate(-239.5 -96.88)"/><path class="cls-14" d="M451.35,222.45c2.44,4.08,5.76,9.19,7.27,11.4a163.9,163.9,0,0,0,20.8,25.28c2.22,2.31-1.18-1.16,0,0" transform="translate(-239.5 -96.88)"/><polygon class="cls-6" points="210.7 126.2 211.88 124.94 213.01 126.2 210.7 126.2"/><rect class="cls-14" x="224.84" y="158.34" width="13.15" height="5.65" rx="2.83" ry="2.83"/><polygon class="cls-6" points="210.7 126.2 213.01 126.2 214.37 184.36 211.12 184.36 210.7 126.2"/><path class="cls-14" d="M439.35,223.07c2.25,4.19,4,6.63,8.44,13.38a202.49,202.49,0,0,0,20.1,26.37" transform="translate(-239.5 -96.88)"/><path class="cls-6" d="M380.35,250.76a7,7,0,0,0,1.08,0c1-.08,4.27-.08,10.72-.09,8.82,0,13.23,0,18.13.33,4.25.31,7.51.73,12,1.31,2.88.37,6.18.87,12.67,1.86l11.36,1.75c10.86,1.68,11,1.71,12.12,1.86,2.88.39,6.87.81,14.85,1.64,5.09.53,8.64.86,15.73,1.53,4.19.39,4.61.42,5.13.44,3.58.13,4.74-.18,5,.33,1.07,1.92-5.61,10.18-9.17,8.85-.43-.16-.35,0-1.42-.94a15.77,15.77,0,0,0-2.58-1.76c-1.67-.9-9.37-2.44-9.76-2.54-6.34-1.55-14.53-2.79-14.53-2.79-22.41-3.52-26.71-5.12-33-6.17-9.06-1.52-10.29-2-16.49-2.73-3.63-.45-11.31-1.29-21.19-1.53-6.87-.16-10.31-.09-10.59,0-.7.21-2.44.8-3.28,0-.6-.57-.65-1.76-.22-2.08S378.32,250.63,380.35,250.76Z" transform="translate(-239.5 -96.88)"/><polygon class="cls-6" points="226.14 159.95 223.83 159.95 223.29 180.56 226.14 180.56 226.14 159.95"/><path class="cls-14" d="M439.35,222.45c-1,1.56-4.12,6-6,8.6a94.42,94.42,0,0,1-7.86,9.83c-4.89,5.24-8.06,7.18-9.09,7.78a16.8,16.8,0,0,1-4,2c-6.82,2-13.34-2.79-14.34-3.52a22.53,22.53,0,0,1-7.83-11.35" transform="translate(-239.5 -96.88)"/><polygon class="cls-6" points="198.7 126.2 199.89 124.94 201.01 126.2 198.7 126.2"/><polygon class="cls-6" points="150.74 137.12 149.49 137.12 148.98 166.29 150.74 166.29 150.74 137.12"/><rect class="cls-6" x="150.74" y="137.58" width="5.49" height="1.3"/><polygon class="cls-6" points="201.01 126.2 198.7 126.2 197.75 183.89 201.01 183.89 201.01 126.2"/><rect class="cls-6" x="156.95" y="179.33" width="70.43" height="18.12"/></g><circle class="cls-15" cx="52.88" cy="147.12" r="50.67"/><circle class="cls-15" cx="190.78" cy="147.12" r="50.67"/><path class="cls-3" d="M430.3,296.88A52.88,52.88,0,1,1,483.16,244a52.94,52.94,0,0,1-52.85,52.85Zm0-98.36A45.48,45.48,0,1,0,475.81,244a45.55,45.55,0,0,0-45.51-45.51Zm0,0" transform="translate(-239.5 -96.88)"/><path class="cls-3" d="M292.36,296.88A52.88,52.88,0,1,1,345.25,244a52.93,52.93,0,0,1-52.89,52.85Zm0-98.36A45.48,45.48,0,1,0,337.85,244a45.54,45.54,0,0,0-45.5-45.51Z" transform="translate(-239.5 -96.88)"/></svg>