<?xml version="1.0" encoding="utf-8"?>
<!-- Generator: Adobe Illustrator 21.1.0, SVG Export Plug-In . SVG Version: 6.00 Build 0)  -->
<svg version="1.1" id="Layer_1" xmlns="http://www.w3.org/2000/svg" xmlns:xlink="http://www.w3.org/1999/xlink" x="0px" y="0px"
	 viewBox="0 0 700 200" style="enable-background:new 0 0 700 200;" xml:space="preserve">
<style type="text/css">
	.st0{fill:#FD9453;}
	.st1{fill:#F7B733;}
	.st2{fill:#00BDAC;}
	.st3{fill:#009987;}
	.st4{opacity:0.7;}
	.st5{fill:#FFFFFF;}
	.st6{fill:none;stroke:#009987;stroke-width:0.75;stroke-linecap:round;stroke-miterlimit:10;}
	.st7{fill:none;stroke:#009987;stroke-width:2;stroke-miterlimit:10;}
	.st8{clip-path:url(#SVGID_2_);}
	.st9{opacity:0.67;fill:#009987;enable-background:new    ;}
	.st10{opacity:0.7;fill:none;stroke:#FFFFFF;stroke-width:0.5;stroke-miterlimit:10;enable-background:new    ;}
	.st11{opacity:0.7;fill:none;stroke:#FFFFFF;stroke-miterlimit:10;enable-background:new    ;}
	.st12{fill:none;stroke:#BDE9E6;stroke-miterlimit:10;}
	.st13{opacity:0.3;fill:#FFFFFF;enable-background:new    ;}
</style>
<title>logo+text</title>
<ellipse class="st0" cx="166" cy="17" rx="20.3" ry="13.7"/>
<path class="st0" d="M149.6,19.6c-2.4,0-4.4-1.5-4.4-3.3c0-9,9.7-16.3,21.6-16.3c9.1,0,17.2,4.3,20.3,10.8c0.9,1.7-0.3,3.6-2.6,4.2
	s-4.8-0.3-5.6-2c-1.8-3.9-6.7-6.4-12.1-6.4c-7.1,0-12.9,4.4-12.9,9.7C154,18.2,152.1,19.6,149.6,19.6L149.6,19.6z"/>
<path class="st0" d="M188.5,29c-1.7,0-3.3-1-4-2.5L179,13.3c-0.8-1.9,0.4-4,2.6-4.7c2.2-0.7,4.5,0.3,5.6,2.3l5.5,13.2
	c0.8,1.9-0.4,4-2.7,4.7C189.5,29,189,29.1,188.5,29L188.5,29z"/>
<path class="st0" d="M149.6,35.5c-2.4,0-4.4-1.7-4.4-3.7V15.9c0-2,1.9-3.7,4.4-3.7s4.4,1.7,4.4,3.7v15.8
	C154,33.8,152.1,35.5,149.6,35.5L149.6,35.5z"/>
<ellipse class="st0" cx="77.7" cy="17" rx="20.3" ry="13.7"/>
<path class="st0" d="M94,19.6c-2.4,0-4.3-1.5-4.3-3.3c0-5.4-5.8-9.7-12.9-9.7c-5.4,0-10.3,2.6-12.1,6.4c-0.8,1.7-3.3,2.6-5.6,2
	s-3.4-2.5-2.6-4.2C59.5,4.3,67.7,0,76.8,0c11.9,0,21.6,7.3,21.6,16.3C98.4,18.2,96.5,19.6,94,19.6L94,19.6z"/>
<path class="st0" d="M55.2,29c-0.5,0-1-0.1-1.5-0.2c-2.3-0.7-3.5-2.8-2.7-4.7l5.5-13.2c1.1-2,3.4-2.9,5.5-2.2
	c2.3,0.7,3.4,2.8,2.6,4.7l-5.4,13.2C58.5,28.1,56.9,29,55.2,29L55.2,29z"/>
<path class="st0" d="M94,35.5c-2.4,0-4.3-1.7-4.3-3.7V15.9c0-2,1.9-3.7,4.3-3.7s4.3,1.7,4.3,3.7v15.8C98.3,33.8,96.4,35.5,94,35.5z"
	/>
<rect x="104.9" y="65.7" class="st0" width="33.8" height="49.1"/>
<path class="st1" d="M102.1,55.7c-2,0-3.7-1.6-3.7-3.7c0,0,0,0,0,0c0-15.5-12.5-28.1-28-28.1c-11.8,0-22.4,7.4-26.4,18.6
	c-0.6,2-2.6,3.1-4.6,2.5c-2-0.6-3.1-2.6-2.5-4.6c0-0.1,0.1-0.3,0.1-0.4c6.6-18.4,26.9-28,45.3-21.4C96.4,23.7,105.7,37,105.7,52
	C105.7,54,104.1,55.7,102.1,55.7z"/>
<path class="st1" d="M102.1,150.7c-2,0-3.7-1.7-3.7-3.7c0,0,0,0,0,0V52c-0.1-2,1.5-3.8,3.5-3.9c2-0.1,3.8,1.5,3.9,3.5
	c0,0.1,0,0.3,0,0.4v95C105.7,149,104.1,150.7,102.1,150.7L102.1,150.7z"/>
<path class="st1" d="M6.4,135.2L6.4,135.2c-0.5,0-1-0.1-1.4-0.3c-2-0.7-2.9-2.9-2.2-4.9c0,0,0,0,0,0l34.5-91.2c0.7-2,2.9-3,4.9-2.2
	c2,0.7,3,2.9,2.2,4.9l0,0"/>
<path class="st1" d="M141.6,55.7c-2,0-3.7-1.7-3.7-3.7c0,0,0,0,0,0c0-19.6,15.9-35.4,35.5-35.4c14.9,0,28.2,9.4,33.3,23.4
	c0.7,1.9-0.3,4.1-2.3,4.7c-1.9,0.7-4.1-0.3-4.7-2.3c-5.3-14.6-21.4-22.1-36-16.8c-11,4-18.4,14.5-18.5,26.3
	C145.3,54,143.6,55.7,141.6,55.7L141.6,55.7z"/>
<path class="st1" d="M141.6,150.7c-2,0-3.7-1.6-3.7-3.7V52c-0.1-2,1.5-3.8,3.5-3.9c2-0.1,3.8,1.5,3.9,3.5c0,0.1,0,0.3,0,0.4v95
	C145.3,149,143.7,150.7,141.6,150.7L141.6,150.7z"/>
<path class="st1" d="M237.3,135.1c-1.6,0-3-1-3.5-2.5L199,41.3c-0.7-2,0.3-4.2,2.2-4.9c1.9-0.7,4.1,0.2,4.9,2.2l34.7,91.4
	c0.7,2-0.2,4.1-2.2,4.9c0,0,0,0,0,0C238.2,135.1,237.7,135.2,237.3,135.1L237.3,135.1z"/>
<polygon class="st1" points="173.4,19.3 197.4,30.9 231.8,111.5 184.5,95.5 143.9,123.8 143.5,56.9 148.5,31.6 "/>
<polygon class="st1" points="71.5,20 47.5,31.5 13.1,112.1 60.4,96.1 100.9,124.4 101.4,57.5 95.5,31.5 "/>
<circle class="st2" cx="52.9" cy="149" r="50.7"/>
<path class="st3" d="M53.4,160.9v5.3H53v-5.3H53.4z"/>
<path class="st3" d="M56.6,159.6v6.6h-0.5v-6.6H56.6z"/>
<path class="st3" d="M59.7,158.8v7.4h-0.5v-7.4H59.7z"/>
<path class="st3" d="M62.9,158.8v7.4h-0.5v-7.4H62.9z"/>
<path class="st3" d="M66.1,158.8v7.4h-0.5v-7.4H66.1z"/>
<path class="st3" d="M69.2,158.8v7.4h-0.5v-7.4H69.2z"/>
<path class="st3" d="M72.4,158.8v7.4h-0.5v-7.4H72.4z"/>
<path class="st3" d="M75.5,158.8v7.4H75v-7.4H75.5z"/>
<path class="st3" d="M78.7,159.6v6.6h-0.5v-6.6H78.7z"/>
<path class="st3" d="M81.8,160.6v5.6h-0.5v-5.6H81.8z"/>
<g class="st4">
	
		<ellipse transform="matrix(0.9998 -1.815043e-02 1.815043e-02 0.9998 -2.427 0.5553)" class="st5" cx="29.4" cy="134" rx="3.4" ry="3.4"/>
	
		<ellipse transform="matrix(0.9998 -1.815043e-02 1.815043e-02 0.9998 -2.3299 0.5893)" class="st5" cx="31.3" cy="128.7" rx="3.4" ry="3.4"/>
	
		<ellipse transform="matrix(0.9998 -1.815043e-02 1.815043e-02 0.9998 -2.3754 0.6247)" class="st5" cx="33.2" cy="131.2" rx="3.4" ry="3.4"/>
	
		<ellipse transform="matrix(0.9998 -1.999600e-02 1.999600e-02 0.9998 -2.5623 0.7626)" class="st5" cx="36.9" cy="128.5" rx="3.4" ry="3.4"/>
	
		<ellipse transform="matrix(0.9998 -1.815043e-02 1.815043e-02 0.9998 -2.2468 0.7742)" class="st5" cx="41.5" cy="124.2" rx="3.4" ry="3.4"/>
	
		<ellipse transform="matrix(0.9998 -1.815043e-02 1.815043e-02 0.9998 -2.2883 0.6504)" class="st5" cx="34.7" cy="126.4" rx="3.4" ry="3.4"/>
	
		<ellipse transform="matrix(0.9998 -1.815043e-02 1.815043e-02 0.9998 -2.2641 0.7122)" class="st5" cx="38.1" cy="125.1" rx="3.4" ry="3.4"/>
	
		<ellipse transform="matrix(0.9998 -1.815043e-02 1.815043e-02 0.9998 -2.2713 0.73)" class="st5" cx="39.1" cy="125.5" rx="3.4" ry="3.4"/>
</g>
<g class="st4">
	
		<ellipse transform="matrix(0.9998 -1.815043e-02 1.815043e-02 0.9998 -2.5121 0.7591)" class="st5" cx="40.6" cy="138.8" rx="2.9" ry="2.9"/>
	
		<ellipse transform="matrix(0.9998 -1.815043e-02 1.815043e-02 0.9998 -2.4495 0.7915)" class="st5" cx="42.4" cy="135.3" rx="2.9" ry="2.9"/>
	
		<ellipse transform="matrix(0.9998 -1.815043e-02 1.815043e-02 0.9998 -2.468 0.8183)" class="st5" cx="43.8" cy="136.4" rx="2.9" ry="2.9"/>
	
		<ellipse transform="matrix(0.9998 -1.999600e-02 1.999600e-02 0.9998 -2.6937 0.9831)" class="st5" cx="47.8" cy="135.2" rx="2.9" ry="2.9"/>
	
		<ellipse transform="matrix(0.9998 -1.999600e-02 1.999600e-02 0.9998 -2.6531 1.0761)" class="st5" cx="52.5" cy="133.2" rx="2.9" ry="2.9"/>
	
		<ellipse transform="matrix(0.9998 -1.815043e-02 1.815043e-02 0.9998 -2.4273 0.8524)" class="st5" cx="45.7" cy="134.1" rx="2.9" ry="2.9"/>
	
		<ellipse transform="matrix(0.9998 -1.815043e-02 1.815043e-02 0.9998 -2.4015 0.9051)" class="st5" cx="48.7" cy="132.8" rx="2.9" ry="2.9"/>
</g>
<path class="st3" d="M51.9,166.3h31l0,0v16.8c0,5.5-4.5,10-10,10h-21l0,0V166.3L51.9,166.3z"/>
<ellipse class="st3" cx="67.4" cy="166.3" rx="15.5" ry="4.2"/>
<path class="st3" d="M67.4,161.1c9.1,0,14.4,1.7,14.8,2.7c-0.4,1-5.7,2.7-14.8,2.7s-14.4-1.7-14.8-2.7
	C53,162.8,58.4,161.1,67.4,161.1 M67.4,160.1c-8.7,0-15.8,1.6-15.8,3.7s7.1,3.7,15.8,3.7s15.8-1.6,15.8-3.7S76.2,160.1,67.4,160.1z"
	/>
<path class="st3" d="M67.4,159.2c9.1,0,14.4,1.7,14.8,2.7c-0.4,1-5.7,2.7-14.8,2.7s-14.4-1.7-14.8-2.7
	C53,160.9,58.4,159.2,67.4,159.2 M67.4,158.2c-8.7,0-15.8,1.6-15.8,3.7s7.1,3.7,15.8,3.7s15.8-1.6,15.8-3.7S76.2,158.2,67.4,158.2z"
	/>
<path class="st3" d="M53.4,161.9v7.4H53v-7.4H53.4z"/>
<path class="st3" d="M81.8,162.5v7.4h-0.5v-7.4H81.8z"/>
<path class="st3" d="M83.8,161.8H86v0.3h-2.2V161.8z"/>
<line class="st6" x1="83.9" y1="161.5" x2="83.9" y2="184.6"/>
<line class="st6" x1="85.8" y1="161.5" x2="85.8" y2="183.3"/>
<path class="st3" d="M83.8,163.1H86v0.3h-2.2V163.1z"/>
<path class="st3" d="M83.8,164.4H86v0.3h-2.2V164.4z"/>
<path class="st3" d="M83.8,165.7H86v0.3h-2.2V165.7z"/>
<path class="st3" d="M83.8,167H86v0.3h-2.2V167z"/>
<path class="st3" d="M83.8,168.2H86v0.3h-2.2V168.2z"/>
<path class="st3" d="M83.8,169.5H86v0.3h-2.2V169.5z"/>
<path class="st3" d="M83.8,170.8H86v0.3h-2.2V170.8z"/>
<path class="st3" d="M83.8,172.1H86v0.3h-2.2V172.1z"/>
<path class="st3" d="M83.8,173.4H86v0.3h-2.2V173.4z"/>
<path class="st3" d="M83.8,174.6H86v0.3h-2.2V174.6z"/>
<path class="st3" d="M83.8,175.9H86v0.3h-2.2V175.9z"/>
<path class="st3" d="M83.8,177.2H86v0.3h-2.2V177.2z"/>
<path class="st3" d="M83.8,178.5H86v0.3h-2.2V178.5z"/>
<path class="st3" d="M83.8,179.8H86v0.3h-2.2V179.8z"/>
<path class="st3" d="M83.8,181H86v0.3h-2.2V181z"/>
<path class="st3" d="M83.8,182.3H86v0.3h-2.2V182.3z"/>
<line class="st6" x1="81.7" y1="162.4" x2="86.3" y2="162.4"/>
<line class="st6" x1="81.7" y1="164.1" x2="86.3" y2="164.1"/>
<path class="st3" d="M22.3,181.2h31.5l0,0v14.5l0,0h-17C28.8,195.7,22.3,189.2,22.3,181.2L22.3,181.2L22.3,181.2L22.3,181.2z"/>
<path class="st3" d="M27.3,141.9h2.3c0.6,0,1,0.4,1,1v35.5c0,1.2-1,2.1-2.1,2.1l0,0c-1.2,0-2.1-1-2.1-2.1v-35.5
	C26.3,142.3,26.7,141.9,27.3,141.9z"/>
<path class="st3" d="M38.5,145.6h2.3c0.6,0,1,0.4,1,1v34.3c0,1.2-1,2.1-2.2,2.1l0,0c-1.2,0-2.1-1-2.2-2.1v-34.3
	C37.5,146,38,145.5,38.5,145.6L38.5,145.6z"/>
<path class="st3" d="M24.6,149.8h5.6v0.6h-5.6V149.8z"/>
<path class="st3" d="M24.6,152.3h2.7v0.6h-2.7V152.3z"/>
<path class="st3" d="M24.6,154.7h2.7v0.6h-2.7V154.7z"/>
<path class="st3" d="M24.6,157.1h2.7v0.6h-2.7V157.1z"/>
<path class="st3" d="M24.6,159.5h2.7v0.6h-2.7V159.5z"/>
<path class="st3" d="M24.6,161.9h2.7v0.6h-2.7V161.9z"/>
<path class="st3" d="M24.6,164.4h2.7v0.6h-2.7V164.4z"/>
<path class="st3" d="M24.6,166.8h2.7v0.6h-2.7V166.8z"/>
<path class="st3" d="M24.6,169.2h2.7v0.6h-2.7V169.2z"/>
<path class="st3" d="M24.6,171.6h2.7v0.6h-2.7V171.6z"/>
<path class="st3" d="M24.6,176.5h2.7v0.6h-2.7V176.5z"/>
<path class="st3" d="M24.6,178.9h2.7v0.6h-2.7V178.9z"/>
<path class="st3" d="M24.6,181.3h2.7v0.6h-2.7V181.3z"/>
<rect x="38.8" y="173.7" class="st7" width="8.8" height="9.6"/>
<path class="st3" d="M24.6,183.7h2.7v0.6h-2.7V183.7z"/>
<path class="st3" d="M24.6,186.1h2.7v0.6h-2.7V186.1z"/>
<path class="st3" d="M31.6,150.6l-1,0.8v-0.8H31.6 M33.8,149.8h-4v3.4l0.4-0.7L33.8,149.8L33.8,149.8z"/>
<rect x="22.7" y="175.9" class="st3" width="22.8" height="9.6"/>
<g>
	<defs>
		<circle id="SVGID_1_" cx="190.8" cy="147.1" r="50.7"/>
	</defs>
	<clipPath id="SVGID_2_">
		<use xlink:href="#SVGID_1_"  style="overflow:visible;"/>
	</clipPath>
	<g class="st8">
		<circle class="st2" cx="190.8" cy="147.1" r="50.7"/>
		<path class="st9" d="M146.3,166.3h81c5,0,9.1,4.1,9.1,9.1l0,0c0,5-4.1,9.1-9.1,9.1h-81c-5,0-9.1-4.1-9.1-9.1l0,0
			C137.2,170.3,141.3,166.3,146.3,166.3z"/>
		<path class="st2" d="M233.7,153.8h-4.9v-4.9c1.6,0.8,3.2,1.4,4.9,1.8V153.8z"/>
		<path class="st2" d="M226.9,147.8v6h-4.3v-9.7C223.9,145.5,225.4,146.7,226.9,147.8L226.9,147.8z"/>
		<path class="st2" d="M220.8,141.8v12h-2.6v-16.7C218.9,138.8,219.7,140.3,220.8,141.8z"/>
		<path class="st2" d="M197.8,153.8v-3c1.5-0.5,2.9-1.1,4.3-1.8v4.9L197.8,153.8z"/>
		<path class="st2" d="M195.9,153.8h-4.3v-2c1.5-0.1,2.9-0.2,4.3-0.6V153.8z"/>
		<path class="st2" d="M189.8,153.8h-4.3v-2.6c1.4,0.3,2.9,0.5,4.3,0.6V153.8z"/>
		<path class="st2" d="M183.5,153.8h-4.3v-4.9c1.4,0.7,2.8,1.4,4.3,1.8V153.8z"/>
		<path class="st2" d="M212.7,153.8h-2.6v-12c1-1.5,1.9-3,2.6-4.7V153.8z"/>
		<path class="st2" d="M208.3,144.1v9.7h-4.3v-6C205.5,146.7,207,145.5,208.3,144.1L208.3,144.1z"/>
		<path class="st2" d="M177.5,147.8v6h-4.3v-9.7C174.4,145.5,175.9,146.7,177.5,147.8L177.5,147.8z"/>
		<path class="st2" d="M171.3,141.8v12h-2.6v-16.7C169.4,138.8,170.3,140.3,171.3,141.8z"/>
		<path class="st2" d="M158.8,144.1v9.7h-4.3v-6C156,146.7,157.5,145.5,158.8,144.1L158.8,144.1z"/>
		<path class="st2" d="M147.8,150.7c1.7-0.5,3.3-1.1,4.8-1.8v4.9h-4.8V150.7z"/>
		<path class="st2" d="M160.6,153.8v-12c1-1.5,1.9-3,2.6-4.7v16.6L160.6,153.8z"/>
		<path class="st2" d="M211.8,171.5"/>
		<line class="st10" x1="216.3" y1="132.7" x2="216.3" y2="160.6"/>
		<line class="st10" x1="218.1" y1="135.5" x2="218.1" y2="163.4"/>
		<line class="st10" x1="220" y1="138.4" x2="220" y2="163.4"/>
		<line class="st10" x1="221.9" y1="141.1" x2="221.9" y2="162.7"/>
		<line class="st10" x1="223.8" y1="143.8" x2="223.8" y2="164"/>
		<line class="st10" x1="225.6" y1="145.9" x2="225.6" y2="162.9"/>
		<line class="st10" x1="227.4" y1="148" x2="227.4" y2="164.6"/>
		<line class="st10" x1="229.3" y1="150.4" x2="229.3" y2="165.3"/>
		<line class="st10" x1="231.1" y1="152.6" x2="231.1" y2="165.5"/>
		<line class="st10" x1="233" y1="154.7" x2="233" y2="165.1"/>
		<line class="st10" x1="234.9" y1="157" x2="234.9" y2="164"/>
		<line class="st10" x1="214.5" y1="129.8" x2="214.5" y2="160.2"/>
		<line class="st10" x1="207.8" y1="131.1" x2="207.8" y2="159.6"/>
		<line class="st10" x1="206" y1="133" x2="206" y2="161.3"/>
		<line class="st10" x1="204.1" y1="133" x2="204.1" y2="160.2"/>
		<line class="st10" x1="202.2" y1="129.8" x2="202.2" y2="158.9"/>
		<line class="st11" x1="200.3" y1="136" x2="200.3" y2="162.4"/>
		<line class="st10" x1="196.7" y1="130.2" x2="196.7" y2="158.9"/>
		<line class="st10" x1="194.8" y1="132.9" x2="194.8" y2="159.2"/>
		<line class="st10" x1="193" y1="135.5" x2="193" y2="158.7"/>
		<line class="st10" x1="191.1" y1="138" x2="191.1" y2="157.1"/>
		<line class="st10" x1="189.2" y1="140.4" x2="189.2" y2="156.3"/>
		<line class="st10" x1="209.6" y1="128.2" x2="209.6" y2="159.9"/>
		<line class="st10" x1="187.3" y1="142.5" x2="187.3" y2="157.6"/>
		<line class="st10" x1="185.4" y1="144.4" x2="185.4" y2="158.2"/>
		<line class="st10" x1="183.6" y1="146.3" x2="183.6" y2="157.7"/>
		<line class="st10" x1="181.7" y1="148.1" x2="181.7" y2="156.7"/>
		<line class="st10" x1="179.8" y1="149.8" x2="179.8" y2="157.2"/>
		<line class="st10" x1="178" y1="151.3" x2="178" y2="156.3"/>
		<line class="st10" x1="176.1" y1="152.2" x2="176.1" y2="156.7"/>
		<line class="st10" x1="174.6" y1="153.2" x2="174.6" y2="156.3"/>
		<line class="st10" x1="158.1" y1="140.9" x2="158.1" y2="154.7"/>
		<line class="st10" x1="159.8" y1="143.8" x2="159.8" y2="155.2"/>
		<line class="st10" x1="161.7" y1="146.4" x2="161.7" y2="155.2"/>
		<line class="st10" x1="163.6" y1="148.3" x2="163.6" y2="155.2"/>
		<line class="st10" x1="165.5" y1="149.9" x2="165.5" y2="155.6"/>
		<line class="st10" x1="167.3" y1="151.4" x2="167.3" y2="155.2"/>
		<line class="st10" x1="169.2" y1="152.3" x2="169.2" y2="155.2"/>
		<line class="st10" x1="170.7" y1="153.2" x2="170.7" y2="156.4"/>
		<line class="st11" x1="156.8" y1="139.7" x2="156.8" y2="153.5"/>
		<line class="st10" x1="155" y1="138.9" x2="155" y2="154"/>
		<line class="st10" x1="153.1" y1="145.1" x2="153.1" y2="154"/>
		<line class="st10" x1="151.4" y1="141.1" x2="151.4" y2="154"/>
		<line class="st10" x1="147.7" y1="145.1" x2="147.7" y2="154"/>
		<line class="st10" x1="146" y1="150.4" x2="146" y2="154.5"/>
		<polygon class="st3" points="149.5,137.1 150.1,136.4 150.7,137.1 		"/>
		<polygon class="st3" points="156,137.1 156.6,136.4 157.2,137.1 		"/>
		<polygon class="st3" points="236.6,159.9 239,159.9 239.9,180.6 237.1,180.6 		"/>
		<path class="st12" d="M211.9,126.2c-1.2,1.7-6.5,7.4-8.6,9.9c-2.6,3-5.3,5.9-8.3,8.6c-4.6,4.2-7,6.4-10.8,8
			c-1.9,0.9-3.9,1.5-6,1.7c-6.5,0.6-11.4-3.3-13.1-4.6c-4.6-3.6-7.7-10-8.5-12.2"/>
		<polygon class="st3" points="156,137.1 157.2,137.1 157.9,166.3 156.2,166.3 		"/>
		<path class="st12" d="M149.7,138c-0.6,2.8-1.4,5.6-2.3,8.4c-0.9,2.9-2,5.8-3.4,8.5"/>
		<rect x="201" y="127" class="st3" width="10.2" height="2.4"/>
		<path class="st12" d="M155,138.7c-0.6,2.8-1.4,5.6-2.3,8.4c-1.4,4.1-1.4,4.6-3,7.6"/>
		<path class="st12" d="M211.9,125.6c2.4,4.1,5.8,9.2,7.3,11.4c6.1,9.1,13,17.6,20.8,25.3c2.2,2.3-1.2-1.2,0,0"/>
		<polygon class="st3" points="210.7,126.2 211.9,124.9 213,126.2 		"/>
		<path class="st12" d="M227.7,158.3h7.5c1.6,0,2.8,1.3,2.8,2.8l0,0c0,1.6-1.3,2.8-2.8,2.8h-7.5c-1.6,0-2.8-1.3-2.8-2.8l0,0
			C224.8,159.6,226.1,158.3,227.7,158.3z"/>
		<polygon class="st3" points="210.7,126.2 213,126.2 214.4,184.4 211.1,184.4 		"/>
		<path class="st12" d="M199.9,126.2c2.2,4.2,4,6.6,8.4,13.4c6,9.3,12.7,18.1,20.1,26.4"/>
		<path class="st3" d="M140.9,153.9c0.4,0,0.7,0,1.1,0c1-0.1,4.3-0.1,10.7-0.1c8.8,0,13.2,0,18.1,0.3c4.2,0.3,7.5,0.7,12,1.3
			c2.9,0.4,6.2,0.9,12.7,1.9l11.4,1.7c10.9,1.7,11,1.7,12.1,1.9c2.9,0.4,6.9,0.8,14.9,1.6c5.1,0.5,8.6,0.9,15.7,1.5
			c4.2,0.4,4.6,0.4,5.1,0.4c3.6,0.1,4.7-0.2,5,0.3c1.1,1.9-5.6,10.2-9.2,8.9c-0.4-0.2-0.4,0-1.4-0.9c-0.8-0.7-1.7-1.3-2.6-1.8
			c-1.7-0.9-9.4-2.4-9.8-2.5c-6.3-1.6-14.5-2.8-14.5-2.8c-22.4-3.5-26.7-5.1-33-6.2c-9.1-1.5-10.3-2-16.5-2.7
			c-3.6-0.4-11.3-1.3-21.2-1.5c-6.9-0.2-10.3-0.1-10.6,0c-0.7,0.2-2.4,0.8-3.3,0c-0.6-0.6-0.6-1.8-0.2-2.1S138.8,153.8,140.9,153.9z
			"/>
		<polygon class="st3" points="226.1,159.9 223.8,159.9 223.3,180.6 226.1,180.6 		"/>
		<path class="st12" d="M199.9,125.6c-1,1.6-4.1,6-6,8.6c-2.4,3.4-5,6.7-7.9,9.8c-4.9,5.2-8.1,7.2-9.1,7.8c-1.2,0.8-2.6,1.5-4,2
			c-6.8,2-13.3-2.8-14.3-3.5c-3.7-2.9-6.5-6.8-7.8-11.4"/>
		<polygon class="st3" points="198.7,126.2 199.9,124.9 201,126.2 		"/>
		<polygon class="st3" points="150.7,137.1 149.5,137.1 149,166.3 150.7,166.3 		"/>
		<rect x="150.7" y="137.6" class="st3" width="5.5" height="1.3"/>
		<polygon class="st3" points="201,126.2 198.7,126.2 197.8,183.9 201,183.9 		"/>
		<rect x="156.9" y="179.3" class="st3" width="70.4" height="18.1"/>
	</g>
</g>
<circle class="st13" cx="53.2" cy="147.1" r="50.7"/>
<circle class="st13" cx="190.8" cy="147.1" r="50.7"/>
<path class="st0" d="M190.8,200c-29.2,0-52.9-23.6-52.9-52.9c0-29.2,23.6-52.9,52.9-52.9c29.2,0,52.9,23.6,52.9,52.9c0,0,0,0,0,0.1
	C243.6,176.3,220,200,190.8,200z M190.8,101.6c-25.1,0-45.5,20.4-45.4,45.5s20.4,45.5,45.5,45.4c25.1,0,45.4-20.4,45.4-45.4
	C236.3,122,215.9,101.7,190.8,101.6z"/>
<path class="st0" d="M52.9,200C23.7,200,0,176.3,0,147.1s23.7-52.9,52.9-52.9c29.2,0,52.9,23.7,52.9,52.9c0,0,0,0,0,0
	C105.7,176.3,82,200,52.9,200z M52.9,101.6c-25.1,0-45.5,20.4-45.5,45.5c0,25.1,20.4,45.5,45.5,45.5c25.1,0,45.4-20.4,45.5-45.4
	C98.3,122,78,101.7,52.9,101.6z"/>
<path class="st5" d="M308.5,45.9h0.7l7.6,25.8h-16L308.5,45.9z M301,32.4l-21.9,65.9h14l4.9-16h21.5l4.8,16h15l-21.8-65.9H301z"/>
<path class="st5" d="M353.4,24.5c5.2,0,8.5,3.1,8.5,7.4s-3.2,7.4-8.5,7.4s-8.3-3.1-8.3-7.4S348.4,24.5,353.4,24.5 M346.7,46.9h13.6
	v51.4h-13.6V46.9z"/>
<path class="st5" d="M373.3,46.9h13.6V55h0.7c1-3.5,4.7-8.8,12.6-8.8c1.4,0,2.9,0.1,4.2,0.4v12.2c-1.7-0.4-3.5-0.6-5.2-0.6
	c-8.2,0-12,4.7-12,11.6v28.6h-14L373.3,46.9z"/>
<polygon class="st5" points="441.9,98.3 424.7,32.4 439.7,32.4 449.1,78.6 449.8,78.6 461.1,32.4 473,32.4 484.4,78.6 485,78.6 
	494.4,32.4 509.4,32.4 492.1,98.3 479.2,98.3 467.3,54.4 466.8,54.4 454.9,98.3 "/>
<path class="st5" d="M509.3,83.4c0-9.3,6.4-15.4,18.3-15.4H540v-4.4c0-4.6-3.1-6.9-8.1-6.9s-7.3,2.2-7.9,5.3h-12.8
	c0.5-8.4,6.3-15.8,21-15.8c11.7,0,21.2,4.7,21.2,17.9v34.3h-12.8v-6.4H540c-1.9,3.7-6.2,7.2-13.8,7.2
	C516.2,99.1,509.3,93.1,509.3,83.4 M540,81.3v-5.2h-9.2c-5.4,0-8,2.6-8,6.3c0,4.4,3.8,6.6,8,6.6C535.8,88.9,540,85.8,540,81.3"/>
<path class="st5" d="M568.4,34.8h13.2v12.8h11.3v10.7h-11.3v23.2c0,4.8,2.2,6.3,7.3,6.3c1.7,0,3.5-0.1,4.4-0.2V98
	c-2.6,0.4-5.2,0.6-7.8,0.6c-12.9,0-17.4-4.2-17.4-14.8V58.3h-7.8V47.6h8.1L568.4,34.8z"/>
<path class="st5" d="M599.7,69.5c0-14.1,8.8-23.6,23.2-23.6c13.7,0,21.3,8.3,21.5,18.7h-12.5c-0.3-3.5-2.7-7.6-8.7-7.6
	c-6.3,0-9.9,4.9-9.9,12.6v5.5c0,8.2,3.7,13,9.9,13s8.3-3.5,8.8-7.2h12.5c-0.2,11.7-8.7,18.3-21.7,18.3c-14,0-23.1-8.6-23.1-24
	L599.7,69.5z"/>
<path class="st5" d="M653.5,28h13.6v27.9h0.7c1.1-3.7,5.4-9.8,15.2-9.8s17,6,17,18.1v34.2h-13.6V68c0-7.4-4.1-10-9.1-10
	c-6.2,0-10.2,4.6-10.2,11.9v28.4h-13.6V28z"/>
<path class="st1" d="M441.9,117.1h19.1c8,0,13.5,4.1,13.5,11c0,5.8-3.6,8.9-7.8,9.9v0.4c5.4,0.5,10,4.1,10,10.9
	c0,8.3-6.9,12.7-15.7,12.7h-19.2V117.1z M451.4,135.6h5.7c5.5,0,8.1-2.1,8.1-5.7s-2.6-5.5-6.4-5.5h-7.4V135.6z M451.4,154.9h6.4
	c5.7,0,9.4-1.8,9.4-6.2c0-4.1-2.9-6.4-7.8-6.4h-7.9V154.9z"/>
<path class="st1" d="M481.1,151.9c0-6.3,4.4-10.5,12.5-10.5h8.4v-3c0-3.1-2.1-4.7-5.5-4.7s-5,1.5-5.4,3.6h-8.7
	c0.3-5.7,4.3-10.8,14.3-10.8c8,0,14.5,3.2,14.5,12.2v23.4h-8.7v-4.4H502c-1.3,2.5-4.2,4.9-9.4,4.9
	C485.8,162.7,481.1,158.7,481.1,151.9 M502,150.5V147h-6.3c-3.7,0-5.4,1.8-5.4,4.3c0,3,2.6,4.5,5.4,4.5
	C499.1,155.8,502,153.6,502,150.5"/>
<path class="st1" d="M538.7,160.8l-0.9,2.4c-2.4,6.6-5.9,11.4-15.1,11.4c-1.7,0-3.3-0.1-5-0.4v-6.8c1,0.2,1.9,0.2,2.9,0.2
	c4.3,0,5.8-1.6,6.3-4.4l0.3-1l-12-35h10.2l7,27h0.4l7.2-27h9.9C550,127.1,538.8,160.4,538.7,160.8"/>
<path class="st1" d="M563.9,162.1l14.9-45h11.3l14.8,45h-10.2l-3.3-10.9h-14.7l-3.4,10.9H563.9z M583.9,126.3l-5.3,17.6h10.9
	l-5.2-17.6H583.9z"/>
<path class="st1" d="M609.9,127h9.3v5.5h0.5c1.2-3.7,4.7-6.2,8.6-6c1,0,1.9,0.1,2.9,0.3v8.3c-1.2-0.3-2.4-0.4-3.6-0.4
	c-5.6,0-8.2,3.2-8.2,7.9v19.5h-9.5V127z"/>
<path class="st1" d="M633.9,146.4v-3.7c0-10.7,7-16.3,15.8-16.3c9.2,0,15.7,6.2,15.7,16.3v4H643v1.6c0,4.3,2.8,7.2,7.1,7.2
	c3.4,0,5.9-1.6,6.3-3.8h8.6c-0.3,4.6-4.7,11.1-14.9,11.1C640.3,162.8,633.9,157.1,633.9,146.4 M656.4,141v-0.3
	c0-4.4-2.6-7.2-6.7-7.2s-6.7,2.9-6.7,7.2v0.3H656.4z"/>
<path class="st1" d="M669.9,151.9c0-6.3,4.4-10.5,12.5-10.5h8.4v-3c0-3.1-2.1-4.7-5.5-4.7s-5,1.5-5.4,3.6h-8.7
	c0.3-5.7,4.3-10.8,14.3-10.8c8,0,14.5,3.2,14.5,12.2v23.4h-8.7v-4.4h-0.4c-1.3,2.5-4.2,4.9-9.4,4.9
	C674.6,162.7,669.9,158.7,669.9,151.9 M690.8,150.5V147h-6.3c-3.7,0-5.4,1.8-5.4,4.3c0,3,2.6,4.5,5.4,4.5
	C688,155.8,690.8,153.6,690.8,150.5"/>
</svg>
